# xmcd
#
# Track frame offsets:
#	150
#	19045
#	43505
#	62740
#	88757
#	124685
#	154137
#	172547
#	198717
#	225520
#	257335
#	277470
#
# Disc length: 4103 seconds
#
# Revision: 1
# Processed by: cddbd v1.5.1PL2 Copyright (c) Steve Scherf et al.
# Submitted via: audiograbber 1.83.01
#
DISCID=9b10050c
DTITLE=The Blues Notions - This Is It!
DYEAR=1997
DGENRE=Blues
TTITLE0=New Old Lady
TTITLE1=Out In The Bayou
TTITLE2=Frosted Flake
TTITLE3=This Is It
TTITLE4=Choice Of Poisons
TTITLE5=Where's Your Wife?
TTITLE6=Get Yourself Back Home
TTITLE7=Buzz Me
TTITLE8=Divvy Up
TTITLE9=Steppin' Stevies
TTITLE10=When U Die U Dead
TTITLE11=Cold Hearted Woman
EXTD=
EXTT0=
EXTT1=
EXTT2=
EXTT3=
EXTT4=
EXTT5=
EXTT6=
EXTT7=
EXTT8=
EXTT9=
EXTT10=
EXTT11=
PLAYORDER=
